<svg xmlns="http://www.w3.org/2000/svg" width="22" height="22" viewBox="0 0 22 22">
  <g id="settings_-_icon" data-name="settings - icon" transform="translate(-1 -1)">
    <path id="Path_636" data-name="Path 636" d="M10.076,3.163A1.279,1.279,0,0,1,11.35,2h1.3a1.279,1.279,0,0,1,1.274,1.163,1.42,1.42,0,0,0,.947,1.173q.2.073.387.157a1.457,1.457,0,0,0,1.516-.174,1.311,1.311,0,0,1,1.766.08l.918.918A1.25,1.25,0,0,1,19.535,7a1.384,1.384,0,0,0-.145,1.483q.15.316.274.646a1.42,1.42,0,0,0,1.173.947A1.279,1.279,0,0,1,22,11.35v1.3a1.279,1.279,0,0,1-1.163,1.274,1.42,1.42,0,0,0-1.173.947q-.111.3-.244.581a1.319,1.319,0,0,0,.146,1.4,1.2,1.2,0,0,1-.073,1.612l-1.026,1.026a1.2,1.2,0,0,1-1.612.073,1.319,1.319,0,0,0-1.4-.146q-.285.133-.581.244a1.42,1.42,0,0,0-.947,1.173A1.279,1.279,0,0,1,12.65,22h-1.3a1.279,1.279,0,0,1-1.274-1.163,1.42,1.42,0,0,0-.947-1.173q-.33-.124-.646-.274A1.384,1.384,0,0,0,7,19.535a1.25,1.25,0,0,1-1.684-.076L4.4,18.54a1.311,1.311,0,0,1-.08-1.766,1.457,1.457,0,0,0,.174-1.516q-.083-.191-.157-.387a1.42,1.42,0,0,0-1.173-.947A1.279,1.279,0,0,1,2,12.65v-1.3a1.279,1.279,0,0,1,1.163-1.274,1.42,1.42,0,0,0,1.173-.947q.086-.231.186-.454a1.522,1.522,0,0,0-.174-1.6,1.362,1.362,0,0,1,.083-1.835l.812-.812a1.362,1.362,0,0,1,1.835-.083,1.522,1.522,0,0,0,1.6.174q.224-.1.454-.186A1.42,1.42,0,0,0,10.076,3.163Z" fill="none" stroke="#FFFF" stroke-linecap="round" stroke-linejoin="round" stroke-width="2"/>
    <path id="Path_637" data-name="Path 637" d="M15,12a3,3,0,1,1-3-3A3,3,0,0,1,15,12Z" fill="" stroke="#FFF" stroke-linecap="round" stroke-linejoin="round" stroke-width="2"/>
  </g>
</svg>
